<svg width="25" height="23" viewBox="0 0 25 23" fill="none" xmlns="http://www.w3.org/2000/svg">
<g clip-path="url(#clip0_6_1252)">
<path d="M12.4447 1.51514V21.6818" stroke="#11B981" stroke-width="1.83333" stroke-linecap="round" stroke-linejoin="round"/>
<path d="M17.028 5.18213H10.153C9.30213 5.18213 8.48608 5.52015 7.8844 6.12183C7.28272 6.72351 6.9447 7.53956 6.9447 8.39046C6.9447 9.24137 7.28272 10.0574 7.8844 10.6591C8.48608 11.2608 9.30213 11.5988 10.153 11.5988H14.7364C15.5873 11.5988 16.4033 11.9368 17.005 12.5385C17.6067 13.1402 17.9447 13.9562 17.9447 14.8071C17.9447 15.658 17.6067 16.4741 17.005 17.0758C16.4033 17.6774 15.5873 18.0155 14.7364 18.0155H6.9447" stroke="#11B981" stroke-width="1.83333" stroke-linecap="round" stroke-linejoin="round"/>
</g>
<defs>
<clipPath id="clip0_6_1252">
<rect width="24" height="22" fill="white" transform="translate(0.444702 0.598633)"/>
</clipPath>
</defs>
</svg>
