<svg width="25" height="23" viewBox="0 0 25 23" fill="none" xmlns="http://www.w3.org/2000/svg">
<g clip-path="url(#clip0_6_1221)">
<path d="M20.6947 10.0054C20.6947 16.422 12.4447 21.922 12.4447 21.922C12.4447 21.922 4.1947 16.422 4.1947 10.0054C4.1947 7.81734 5.0639 5.71892 6.61107 4.17174C8.15825 2.62456 10.2567 1.75537 12.4447 1.75537C14.6327 1.75537 16.7312 2.62456 18.2783 4.17174C19.8255 5.71892 20.6947 7.81734 20.6947 10.0054Z" stroke="#5151F9" stroke-width="1.83333" stroke-linecap="round" stroke-linejoin="round"/>
<path d="M12.4447 12.7554C13.9635 12.7554 15.1947 11.5242 15.1947 10.0054C15.1947 8.48659 13.9635 7.25537 12.4447 7.25537C10.9259 7.25537 9.6947 8.48659 9.6947 10.0054C9.6947 11.5242 10.9259 12.7554 12.4447 12.7554Z" stroke="#5151F9" stroke-width="1.83333" stroke-linecap="round" stroke-linejoin="round"/>
</g>
<defs>
<clipPath id="clip0_6_1221">
<rect width="24" height="22" fill="white" transform="translate(0.444702 0.838867)"/>
</clipPath>
</defs>
</svg>
