<svg width="22" height="18" viewBox="0 0 22 18" fill="none" xmlns="http://www.w3.org/2000/svg">
<path d="M1.76813 1.93122C1.13624 2.5631 0.78125 3.42013 0.78125 4.31376V13.6865C0.78125 14.5801 1.13624 15.4372 1.76813 16.0691C2.40002 16.701 3.25704 17.0559 4.15067 17.0559H17.8493C18.743 17.0559 19.6 16.701 20.2319 16.0691C20.8638 15.4372 21.2188 14.5801 21.2188 13.6865V4.31376C21.2188 3.42013 20.8638 2.5631 20.2319 1.93122C19.6 1.29933 18.743 0.944336 17.8493 0.944336H4.15067C3.25704 0.944336 2.40002 1.29933 1.76813 1.93122ZM2.96453 3.12762C3.27911 2.81303 3.70578 2.6363 4.15067 2.6363H17.8493C18.2942 2.6363 18.7209 2.81303 19.0355 3.12762C19.3501 3.4422 19.5268 3.86887 19.5268 4.31376V5.27023H2.47321V4.31376C2.47321 3.86887 2.64995 3.4422 2.96453 3.12762ZM2.96453 14.8727C2.64995 14.5581 2.47321 14.1314 2.47321 13.6865V6.96219H19.5268V13.6865C19.5268 14.1314 19.3501 14.5581 19.0355 14.8727C18.7209 15.1872 18.2942 15.364 17.8493 15.364H4.15067C3.70578 15.364 3.27911 15.1872 2.96453 14.8727ZM16.7679 11.0381H14.6049C14.3805 11.0381 14.1654 11.1272 14.0067 11.2859C13.8481 11.4445 13.7589 11.6597 13.7589 11.8841C13.7589 12.1084 13.8481 12.3236 14.0067 12.4823C14.1654 12.6409 14.3805 12.7301 14.6049 12.7301H16.7679C16.9922 12.7301 17.2074 12.6409 17.3661 12.4823C17.5247 12.3236 17.6138 12.1084 17.6138 11.8841C17.6138 11.6597 17.5247 11.4445 17.3661 11.2859C17.2074 11.1272 16.9922 11.0381 16.7679 11.0381Z" fill="white" stroke="white" stroke-width="0.25"/>
</svg>
