<svg width="25" height="23" viewBox="0 0 25 23" fill="none" xmlns="http://www.w3.org/2000/svg">
<path d="M21.6113 11.459H3.27802" stroke="#6C757D" stroke-width="1.83333" stroke-linecap="round" stroke-linejoin="round"/>
<path d="M6.44052 5.14299L3.27802 11.4588V16.9588C3.27802 17.4451 3.47117 17.9114 3.81499 18.2552C4.1588 18.599 4.62512 18.7922 5.11135 18.7922H19.778C20.2642 18.7922 20.7306 18.599 21.0744 18.2552C21.4182 17.9114 21.6113 17.4451 21.6113 16.9588V11.4588L18.4488 5.14299C18.2971 4.83754 18.0631 4.5805 17.7732 4.40074C17.4834 4.22099 17.1491 4.12567 16.808 4.12549H8.08135C7.74027 4.12567 7.40601 4.22099 7.11614 4.40074C6.82627 4.5805 6.59229 4.83754 6.44052 5.14299Z" stroke="#6C757D" stroke-width="1.83333" stroke-linecap="round" stroke-linejoin="round"/>
<path d="M6.9447 15.1255H6.9547" stroke="#6C757D" stroke-width="1.83333" stroke-linecap="round" stroke-linejoin="round"/>
<path d="M10.6114 15.1255H10.6214" stroke="#6C757D" stroke-width="1.83333" stroke-linecap="round" stroke-linejoin="round"/>
</svg>
