<svg width="20" height="20" viewBox="0 0 20 20" fill="none" xmlns="http://www.w3.org/2000/svg">
<path d="M1.00006 16.75V6.0625C1.00006 4.71984 1.53343 3.43217 2.48283 2.48277C3.43224 1.53337 4.7199 1 6.06256 1H13.9376C14.6024 1 15.2607 1.13095 15.8749 1.38536C16.4891 1.63977 17.0472 2.01268 17.5173 2.48277C17.9874 2.95287 18.3603 3.51095 18.6147 4.12517C18.8691 4.73938 19.0001 5.39768 19.0001 6.0625V13.9375C19.0001 14.6023 18.8691 15.2606 18.6147 15.8748C18.3603 16.489 17.9874 17.0471 17.5173 17.5172C17.0472 17.9873 16.4891 18.3602 15.8749 18.6146C15.2607 18.8691 14.6024 19 13.9376 19H3.25006C2.65332 19 2.08103 18.7629 1.65907 18.341C1.23711 17.919 1.00006 17.3467 1.00006 16.75V16.75Z" stroke="white" stroke-width="2" stroke-linecap="round" stroke-linejoin="round"/>
<path d="M5.98492 9.74072H9.92242C10.5192 9.74072 11.0915 9.97778 11.5134 10.3997C11.9354 10.8217 12.1724 11.394 12.1724 11.9907C12.1724 12.5875 11.9354 13.1598 11.5134 13.5817C11.0915 14.0037 10.5192 14.2407 9.92242 14.2407H5.98492V6.36572C5.98492 6.06735 6.10345 5.78121 6.31443 5.57023C6.52541 5.35925 6.81156 5.24072 7.10992 5.24072H8.79742C9.39416 5.24072 9.96646 5.47778 10.3884 5.89973C10.8104 6.32169 11.0474 6.89399 11.0474 7.49072C11.0474 8.08746 10.8104 8.65976 10.3884 9.08171C9.96646 9.50367 9.39416 9.74072 8.79742 9.74072H7.10992M14.9849 14.2407H14.9962" stroke="white" stroke-width="2" stroke-linecap="round" stroke-linejoin="round"/>
</svg>
