<svg width="24" height="24" viewBox="0 0 24 24" fill="none" xmlns="http://www.w3.org/2000/svg">
<path d="M15.556 7.64014C15.556 7.54022 15.4742 7.45848 15.3743 7.45848H14.1368C14.0686 7.45848 14.0051 7.49708 13.9755 7.55839L12.0522 11.3914H11.9773L10.054 7.55839C10.039 7.5285 10.0159 7.50335 9.98748 7.48572C9.95904 7.46809 9.92627 7.45866 9.8928 7.45848H8.62801C8.59849 7.45848 8.56897 7.46529 8.54173 7.48119C8.45317 7.52887 8.42138 7.64013 8.46906 7.72642L10.8283 12.0771H9.53403C9.43412 12.0771 9.35237 12.1589 9.35237 12.2588V12.8741C9.35237 12.974 9.43412 13.0558 9.53403 13.0558H11.2598V13.9414H9.53403C9.43412 13.9414 9.35237 14.0231 9.35237 14.123V14.7384C9.35237 14.8383 9.43412 14.92 9.53403 14.92H11.2598V16.3597C11.2598 16.4596 11.3415 16.5413 11.4414 16.5413H12.5745C12.6744 16.5413 12.7562 16.4596 12.7562 16.3597V14.9178H14.4887C14.5886 14.9178 14.6704 14.836 14.6704 14.7361V14.1207C14.6704 14.0208 14.5886 13.9391 14.4887 13.9391H12.7562V13.0535H14.4887C14.5886 13.0535 14.6704 12.9718 14.6704 12.8719V12.2565C14.6704 12.1566 14.5886 12.0748 14.4887 12.0748H13.1808L15.5355 7.72415C15.5469 7.69917 15.556 7.66965 15.556 7.64014ZM3.95943 11.8228C4.00208 9.75328 4.84435 7.78066 6.30962 6.31858C7.0476 5.5806 7.90593 4.9993 8.8619 4.59511C9.85193 4.1773 10.9033 3.96385 11.9864 3.96385C13.0718 3.96385 14.1231 4.17503 15.1109 4.59511C16.0669 4.9993 16.9252 5.5806 17.6632 6.31858C17.8902 6.54565 18.1014 6.78408 18.2967 7.03158L17.1613 7.91943C17.1343 7.94036 17.1137 7.96849 17.1019 8.00059C17.0902 8.0327 17.0877 8.06747 17.0948 8.10092C17.1019 8.13437 17.1183 8.16512 17.1422 8.18966C17.166 8.21419 17.1962 8.2315 17.2295 8.2396L20.7899 9.10929C20.9035 9.13653 21.0147 9.05025 21.0147 8.93444L21.0329 5.26724C21.0329 5.1151 20.8581 5.02882 20.74 5.12419L19.6546 5.97343C17.8744 3.69591 15.1018 2.23584 11.9887 2.23584C6.66385 2.23584 2.3336 6.50705 2.23596 11.8137C2.23535 11.8379 2.2396 11.8621 2.24846 11.8846C2.25732 11.9072 2.2706 11.9277 2.28753 11.9451C2.30446 11.9625 2.32469 11.9762 2.34703 11.9857C2.36937 11.9951 2.39337 11.9999 2.41761 11.9999H3.78004C3.87768 11.9999 3.95716 11.9204 3.95943 11.8228ZM21.5824 11.9999H20.22C20.1224 11.9999 20.0406 12.0794 20.0383 12.177C19.9957 14.2465 19.1534 16.2191 17.6882 17.6812C16.957 18.4155 16.0902 19.0008 15.1359 19.4047C14.1458 19.8225 13.0945 20.036 12.0114 20.036C10.9282 20.036 9.87463 19.8248 8.88687 19.4047C7.93259 19.0008 7.0658 18.4155 6.33459 17.6812C6.10752 17.4542 5.89635 17.2157 5.70106 16.9682L6.83415 16.0804C6.8612 16.0595 6.88179 16.0313 6.89356 15.9992C6.90533 15.9671 6.9078 15.9323 6.90068 15.8989C6.89356 15.8654 6.87715 15.8347 6.85333 15.8101C6.82951 15.7856 6.79925 15.7683 6.76603 15.7602L3.20555 14.8905C3.09202 14.8633 2.98075 14.9496 2.98075 15.0654L2.96259 18.7371C2.96259 18.8892 3.13743 18.9755 3.25551 18.8802L4.34091 18.0309C6.12569 20.3039 8.89823 21.764 12.0114 21.764C17.3362 21.764 21.6664 17.4928 21.7641 12.1861C21.7647 12.1619 21.7604 12.1378 21.7516 12.1152C21.7427 12.0926 21.7294 12.0721 21.7125 12.0547C21.6956 12.0374 21.6754 12.0236 21.653 12.0142C21.6307 12.0047 21.6067 11.9999 21.5824 11.9999Z" fill="white"/>
</svg>
